<svg xmlns="http://www.w3.org/2000/svg" viewBox="0 0 800 800" preserveAspectRatio="xMidYMid slice" role="img" aria-label="Abstract generative-AI neural network illustration">
<defs>
  <radialGradient id="bg" cx="50%" cy="50%" r="80%"><stop offset="0%" stop-color="#173863"/><stop offset="55%" stop-color="#0a1f3f"/><stop offset="100%" stop-color="#04081a"/></radialGradient>
  <radialGradient id="core" cx="50%" cy="50%" r="50%"><stop offset="0%" stop-color="#fff5d0" stop-opacity="1"/><stop offset="25%" stop-color="#e8a317" stop-opacity="0.85"/><stop offset="60%" stop-color="#1568b5" stop-opacity="0.35"/><stop offset="100%" stop-color="#0a4d8c" stop-opacity="0"/></radialGradient>
  <radialGradient id="halo" cx="50%" cy="50%" r="50%"><stop offset="0%" stop-color="#e8a317" stop-opacity="0.6"/><stop offset="100%" stop-color="#e8a317" stop-opacity="0"/></radialGradient>
  <linearGradient id="edge" x1="0%" y1="0%" x2="100%" y2="100%"><stop offset="0%" stop-color="#7fc4ff" stop-opacity="0.0"/><stop offset="50%" stop-color="#7fc4ff" stop-opacity="0.7"/><stop offset="100%" stop-color="#e8a317" stop-opacity="0.0"/></linearGradient>
  <filter id="glow" x="-50%" y="-50%" width="200%" height="200%"><feGaussianBlur stdDeviation="2.4" result="b"/><feMerge><feMergeNode in="b"/><feMergeNode in="SourceGraphic"/></feMerge></filter>
</defs>
<rect width="800" height="800" fill="url(#bg)"/>
<g opacity="0.06" stroke="#cfe3ff" stroke-width="0.5">
<line x1="0" y1="0" x2="0" y2="800"/>
<line x1="0" y1="0" x2="800" y2="0"/>
<line x1="40" y1="0" x2="40" y2="800"/>
<line x1="0" y1="40" x2="800" y2="40"/>
<line x1="80" y1="0" x2="80" y2="800"/>
<line x1="0" y1="80" x2="800" y2="80"/>
<line x1="120" y1="0" x2="120" y2="800"/>
<line x1="0" y1="120" x2="800" y2="120"/>
<line x1="160" y1="0" x2="160" y2="800"/>
<line x1="0" y1="160" x2="800" y2="160"/>
<line x1="200" y1="0" x2="200" y2="800"/>
<line x1="0" y1="200" x2="800" y2="200"/>
<line x1="240" y1="0" x2="240" y2="800"/>
<line x1="0" y1="240" x2="800" y2="240"/>
<line x1="280" y1="0" x2="280" y2="800"/>
<line x1="0" y1="280" x2="800" y2="280"/>
<line x1="320" y1="0" x2="320" y2="800"/>
<line x1="0" y1="320" x2="800" y2="320"/>
<line x1="360" y1="0" x2="360" y2="800"/>
<line x1="0" y1="360" x2="800" y2="360"/>
<line x1="400" y1="0" x2="400" y2="800"/>
<line x1="0" y1="400" x2="800" y2="400"/>
<line x1="440" y1="0" x2="440" y2="800"/>
<line x1="0" y1="440" x2="800" y2="440"/>
<line x1="480" y1="0" x2="480" y2="800"/>
<line x1="0" y1="480" x2="800" y2="480"/>
<line x1="520" y1="0" x2="520" y2="800"/>
<line x1="0" y1="520" x2="800" y2="520"/>
<line x1="560" y1="0" x2="560" y2="800"/>
<line x1="0" y1="560" x2="800" y2="560"/>
<line x1="600" y1="0" x2="600" y2="800"/>
<line x1="0" y1="600" x2="800" y2="600"/>
<line x1="640" y1="0" x2="640" y2="800"/>
<line x1="0" y1="640" x2="800" y2="640"/>
<line x1="680" y1="0" x2="680" y2="800"/>
<line x1="0" y1="680" x2="800" y2="680"/>
<line x1="720" y1="0" x2="720" y2="800"/>
<line x1="0" y1="720" x2="800" y2="720"/>
<line x1="760" y1="0" x2="760" y2="800"/>
<line x1="0" y1="760" x2="800" y2="760"/>
<line x1="800" y1="0" x2="800" y2="800"/>
<line x1="0" y1="800" x2="800" y2="800"/>
</g>
<circle cx="400.0" cy="400.0" r="370" fill="url(#halo)"/>
<circle cx="400.0" cy="400.0" r="280" fill="url(#core)"/>
<g stroke-linecap="round" fill="none">
<line x1="382.1" y1="435.8" x2="427.6" y2="413.0" stroke="#7fc4ff" stroke-width="0.9" opacity="0.45"/>
<line x1="382.1" y1="435.8" x2="384.2" y2="377.9" stroke="#7fc4ff" stroke-width="0.9" opacity="0.43"/>
<line x1="382.1" y1="435.8" x2="334.9" y2="385.1" stroke="#7fc4ff" stroke-width="0.9" opacity="0.41"/>
<line x1="384.2" y1="377.9" x2="381.8" y2="352.5" stroke="#7fc4ff" stroke-width="0.9" opacity="0.50"/>
<line x1="384.2" y1="377.9" x2="334.9" y2="385.1" stroke="#7fc4ff" stroke-width="0.9" opacity="0.45"/>
<line x1="384.2" y1="377.9" x2="427.6" y2="413.0" stroke="#7fc4ff" stroke-width="0.9" opacity="0.44"/>
<line x1="334.9" y1="385.1" x2="301.2" y2="411.7" stroke="#7fc4ff" stroke-width="0.9" opacity="0.46"/>
<line x1="334.9" y1="385.1" x2="381.8" y2="352.5" stroke="#7fc4ff" stroke-width="0.9" opacity="0.44"/>
<line x1="477.8" y1="429.7" x2="472.6" y2="417.4" stroke="#7fc4ff" stroke-width="0.9" opacity="0.52"/>
<line x1="477.8" y1="429.7" x2="427.6" y2="413.0" stroke="#7fc4ff" stroke-width="0.9" opacity="0.44"/>
<line x1="477.8" y1="429.7" x2="523.9" y2="378.1" stroke="#7fc4ff" stroke-width="0.9" opacity="0.41"/>
<line x1="472.6" y1="417.4" x2="427.6" y2="413.0" stroke="#7fc4ff" stroke-width="0.9" opacity="0.46"/>
<line x1="472.6" y1="417.4" x2="523.9" y2="378.1" stroke="#7fc4ff" stroke-width="0.9" opacity="0.42"/>
<line x1="283.4" y1="459.9" x2="253.1" y2="433.1" stroke="#7fc4ff" stroke-width="0.9" opacity="0.47"/>
<line x1="283.4" y1="459.9" x2="301.2" y2="411.7" stroke="#7fc4ff" stroke-width="0.9" opacity="0.45"/>
<line x1="283.4" y1="459.9" x2="307.7" y2="508.7" stroke="#7fc4ff" stroke-width="0.9" opacity="0.44"/>
<line x1="295.7" y1="334.9" x2="274.0" y2="323.4" stroke="#7fc4ff" stroke-width="0.9" opacity="0.50"/>
<line x1="295.7" y1="334.9" x2="295.1" y2="304.8" stroke="#7fc4ff" stroke-width="0.9" opacity="0.49"/>
<line x1="295.7" y1="334.9" x2="274.5" y2="278.5" stroke="#7fc4ff" stroke-width="0.9" opacity="0.43"/>
<line x1="53.9" y1="88.2" x2="171.8" y2="198.7" stroke="#7fc4ff" stroke-width="0.9" opacity="0.23"/>
<line x1="53.9" y1="88.2" x2="142.1" y2="228.5" stroke="#7fc4ff" stroke-width="0.9" opacity="0.22"/>
<line x1="53.9" y1="88.2" x2="242.1" y2="125.3" stroke="#7fc4ff" stroke-width="0.9" opacity="0.17"/>
<line x1="142.1" y1="228.5" x2="171.8" y2="198.7" stroke="#7fc4ff" stroke-width="0.9" opacity="0.47"/>
<line x1="142.1" y1="228.5" x2="273.6" y2="274.9" stroke="#7fc4ff" stroke-width="0.9" opacity="0.27"/>
<line x1="142.1" y1="228.5" x2="274.5" y2="278.5" stroke="#7fc4ff" stroke-width="0.9" opacity="0.27"/>
<line x1="273.6" y1="274.9" x2="274.5" y2="278.5" stroke="#7fc4ff" stroke-width="0.9" opacity="0.54"/>
<line x1="273.6" y1="274.9" x2="295.1" y2="304.8" stroke="#7fc4ff" stroke-width="0.9" opacity="0.48"/>
<line x1="273.6" y1="274.9" x2="274.0" y2="323.4" stroke="#7fc4ff" stroke-width="0.9" opacity="0.45"/>
<line x1="297.3" y1="209.4" x2="273.6" y2="274.9" stroke="#7fc4ff" stroke-width="0.9" opacity="0.41"/>
<line x1="297.3" y1="209.4" x2="274.5" y2="278.5" stroke="#7fc4ff" stroke-width="0.9" opacity="0.40"/>
<line x1="297.3" y1="209.4" x2="374.6" y2="223.8" stroke="#7fc4ff" stroke-width="0.9" opacity="0.39"/>
<line x1="274.0" y1="323.4" x2="295.1" y2="304.8" stroke="#7fc4ff" stroke-width="0.9" opacity="0.49"/>
<line x1="274.0" y1="323.4" x2="274.5" y2="278.5" stroke="#7fc4ff" stroke-width="0.9" opacity="0.46"/>
<line x1="167.3" y1="468.9" x2="190.2" y2="436.9" stroke="#7fc4ff" stroke-width="0.9" opacity="0.47"/>
<line x1="167.3" y1="468.9" x2="133.6" y2="517.6" stroke="#7fc4ff" stroke-width="0.9" opacity="0.43"/>
<line x1="167.3" y1="468.9" x2="133.6" y2="419.1" stroke="#7fc4ff" stroke-width="0.9" opacity="0.43"/>
<line x1="301.2" y1="411.7" x2="253.1" y2="433.1" stroke="#7fc4ff" stroke-width="0.9" opacity="0.44"/>
<line x1="171.8" y1="198.7" x2="242.1" y2="125.3" stroke="#7fc4ff" stroke-width="0.9" opacity="0.35"/>
<line x1="171.8" y1="198.7" x2="297.3" y2="209.4" stroke="#7fc4ff" stroke-width="0.9" opacity="0.30"/>
<line x1="541.6" y1="245.4" x2="495.2" y2="280.5" stroke="#7fc4ff" stroke-width="0.9" opacity="0.43"/>
<line x1="541.6" y1="245.4" x2="476.4" y2="218.4" stroke="#7fc4ff" stroke-width="0.9" opacity="0.41"/>
<line x1="541.6" y1="245.4" x2="565.4" y2="174.3" stroke="#7fc4ff" stroke-width="0.9" opacity="0.40"/>
<line x1="639.2" y1="280.8" x2="541.6" y2="245.4" stroke="#7fc4ff" stroke-width="0.9" opacity="0.34"/>
<line x1="639.2" y1="280.8" x2="580.8" y2="386.6" stroke="#7fc4ff" stroke-width="0.9" opacity="0.31"/>
<line x1="639.2" y1="280.8" x2="565.4" y2="174.3" stroke="#7fc4ff" stroke-width="0.9" opacity="0.29"/>
<line x1="531.3" y1="160.3" x2="565.4" y2="174.3" stroke="#7fc4ff" stroke-width="0.9" opacity="0.48"/>
<line x1="531.3" y1="160.3" x2="476.4" y2="218.4" stroke="#7fc4ff" stroke-width="0.9" opacity="0.39"/>
<line x1="531.3" y1="160.3" x2="541.6" y2="245.4" stroke="#7fc4ff" stroke-width="0.9" opacity="0.38"/>
<line x1="523.9" y1="378.1" x2="580.8" y2="386.6" stroke="#7fc4ff" stroke-width="0.9" opacity="0.43"/>
<line x1="495.2" y1="280.5" x2="476.4" y2="218.4" stroke="#7fc4ff" stroke-width="0.9" opacity="0.42"/>
<line x1="495.2" y1="280.5" x2="523.9" y2="378.1" stroke="#7fc4ff" stroke-width="0.9" opacity="0.35"/>
<line x1="618.7" y1="107.0" x2="565.4" y2="174.3" stroke="#7fc4ff" stroke-width="0.9" opacity="0.38"/>
<line x1="618.7" y1="107.0" x2="531.3" y2="160.3" stroke="#7fc4ff" stroke-width="0.9" opacity="0.35"/>
<line x1="618.7" y1="107.0" x2="541.6" y2="245.4" stroke="#7fc4ff" stroke-width="0.9" opacity="0.23"/>
<line x1="580.8" y1="386.6" x2="643.7" y2="459.4" stroke="#7fc4ff" stroke-width="0.9" opacity="0.36"/>
<line x1="580.8" y1="386.6" x2="600.9" y2="484.2" stroke="#7fc4ff" stroke-width="0.9" opacity="0.35"/>
<line x1="374.6" y1="223.8" x2="385.3" y2="257.6" stroke="#7fc4ff" stroke-width="0.9" opacity="0.48"/>
<line x1="374.6" y1="223.8" x2="386.0" y2="308.2" stroke="#7fc4ff" stroke-width="0.9" opacity="0.38"/>
<line x1="294.7" y1="569.1" x2="307.7" y2="508.7" stroke="#7fc4ff" stroke-width="0.9" opacity="0.43"/>
<line x1="294.7" y1="569.1" x2="347.1" y2="606.8" stroke="#7fc4ff" stroke-width="0.9" opacity="0.42"/>
<line x1="294.7" y1="569.1" x2="283.4" y2="459.9" stroke="#7fc4ff" stroke-width="0.9" opacity="0.33"/>
<line x1="78.9" y1="667.1" x2="133.6" y2="517.6" stroke="#7fc4ff" stroke-width="0.9" opacity="0.23"/>
<line x1="78.9" y1="667.1" x2="167.3" y2="468.9" stroke="#7fc4ff" stroke-width="0.9" opacity="0.12"/>
<line x1="313.6" y1="680.0" x2="329.6" y2="715.7" stroke="#7fc4ff" stroke-width="0.9" opacity="0.47"/>
<line x1="313.6" y1="680.0" x2="347.1" y2="606.8" stroke="#7fc4ff" stroke-width="0.9" opacity="0.39"/>
<line x1="313.6" y1="680.0" x2="398.5" y2="615.8" stroke="#7fc4ff" stroke-width="0.9" opacity="0.34"/>
<line x1="398.5" y1="615.8" x2="430.2" y2="583.9" stroke="#7fc4ff" stroke-width="0.9" opacity="0.46"/>
<line x1="398.5" y1="615.8" x2="444.2" y2="628.0" stroke="#7fc4ff" stroke-width="0.9" opacity="0.46"/>
<line x1="398.5" y1="615.8" x2="347.1" y2="606.8" stroke="#7fc4ff" stroke-width="0.9" opacity="0.45"/>
<line x1="253.1" y1="433.1" x2="246.6" y2="408.9" stroke="#7fc4ff" stroke-width="0.9" opacity="0.50"/>
<line x1="307.7" y1="508.7" x2="253.1" y2="433.1" stroke="#7fc4ff" stroke-width="0.9" opacity="0.36"/>
<line x1="190.2" y1="436.9" x2="133.6" y2="419.1" stroke="#7fc4ff" stroke-width="0.9" opacity="0.43"/>
<line x1="190.2" y1="436.9" x2="246.6" y2="408.9" stroke="#7fc4ff" stroke-width="0.9" opacity="0.42"/>
<line x1="133.6" y1="517.6" x2="133.6" y2="419.1" stroke="#7fc4ff" stroke-width="0.9" opacity="0.35"/>
<line x1="133.6" y1="517.6" x2="190.2" y2="436.9" stroke="#7fc4ff" stroke-width="0.9" opacity="0.35"/>
<line x1="381.8" y1="352.5" x2="386.0" y2="308.2" stroke="#7fc4ff" stroke-width="0.9" opacity="0.46"/>
<line x1="430.2" y1="583.9" x2="444.2" y2="628.0" stroke="#7fc4ff" stroke-width="0.9" opacity="0.46"/>
<line x1="430.2" y1="583.9" x2="483.3" y2="642.1" stroke="#7fc4ff" stroke-width="0.9" opacity="0.39"/>
<line x1="720.3" y1="617.8" x2="735.4" y2="621.9" stroke="#7fc4ff" stroke-width="0.9" opacity="0.52"/>
<line x1="720.3" y1="617.8" x2="686.2" y2="575.7" stroke="#7fc4ff" stroke-width="0.9" opacity="0.44"/>
<line x1="720.3" y1="617.8" x2="627.9" y2="614.8" stroke="#7fc4ff" stroke-width="0.9" opacity="0.36"/>
<line x1="386.0" y1="308.2" x2="385.3" y2="257.6" stroke="#7fc4ff" stroke-width="0.9" opacity="0.45"/>
<line x1="386.0" y1="308.2" x2="384.2" y2="377.9" stroke="#7fc4ff" stroke-width="0.9" opacity="0.41"/>
<line x1="611.7" y1="486.4" x2="600.9" y2="484.2" stroke="#7fc4ff" stroke-width="0.9" opacity="0.53"/>
<line x1="611.7" y1="486.4" x2="643.7" y2="459.4" stroke="#7fc4ff" stroke-width="0.9" opacity="0.47"/>
<line x1="611.7" y1="486.4" x2="666.7" y2="480.3" stroke="#7fc4ff" stroke-width="0.9" opacity="0.44"/>
<line x1="464.0" y1="657.7" x2="483.3" y2="642.1" stroke="#7fc4ff" stroke-width="0.9" opacity="0.50"/>
<line x1="464.0" y1="657.7" x2="444.2" y2="628.0" stroke="#7fc4ff" stroke-width="0.9" opacity="0.48"/>
<line x1="464.0" y1="657.7" x2="426.0" y2="692.0" stroke="#7fc4ff" stroke-width="0.9" opacity="0.45"/>
<line x1="686.2" y1="575.7" x2="735.4" y2="621.9" stroke="#7fc4ff" stroke-width="0.9" opacity="0.42"/>
<line x1="686.2" y1="575.7" x2="627.9" y2="614.8" stroke="#7fc4ff" stroke-width="0.9" opacity="0.41"/>
<line x1="600.6" y1="603.4" x2="627.9" y2="614.8" stroke="#7fc4ff" stroke-width="0.9" opacity="0.49"/>
<line x1="600.6" y1="603.4" x2="686.2" y2="575.7" stroke="#7fc4ff" stroke-width="0.9" opacity="0.37"/>
<line x1="600.6" y1="603.4" x2="611.7" y2="486.4" stroke="#7fc4ff" stroke-width="0.9" opacity="0.31"/>
<line x1="735.4" y1="621.9" x2="627.9" y2="614.8" stroke="#7fc4ff" stroke-width="0.9" opacity="0.33"/>
<line x1="274.5" y1="278.5" x2="295.1" y2="304.8" stroke="#7fc4ff" stroke-width="0.9" opacity="0.48"/>
<line x1="242.1" y1="125.3" x2="297.3" y2="209.4" stroke="#7fc4ff" stroke-width="0.9" opacity="0.35"/>
<line x1="242.1" y1="125.3" x2="142.1" y2="228.5" stroke="#7fc4ff" stroke-width="0.9" opacity="0.26"/>
<line x1="467.4" y1="31.1" x2="531.3" y2="160.3" stroke="#7fc4ff" stroke-width="0.9" opacity="0.26"/>
<line x1="467.4" y1="31.1" x2="618.7" y2="107.0" stroke="#7fc4ff" stroke-width="0.9" opacity="0.21"/>
<line x1="467.4" y1="31.1" x2="565.4" y2="174.3" stroke="#7fc4ff" stroke-width="0.9" opacity="0.20"/>
<line x1="385.3" y1="257.6" x2="381.8" y2="352.5" stroke="#7fc4ff" stroke-width="0.9" opacity="0.36"/>
<line x1="444.2" y1="628.0" x2="483.3" y2="642.1" stroke="#7fc4ff" stroke-width="0.9" opacity="0.47"/>
<line x1="426.0" y1="692.0" x2="409.6" y2="731.7" stroke="#7fc4ff" stroke-width="0.9" opacity="0.46"/>
<line x1="426.0" y1="692.0" x2="444.2" y2="628.0" stroke="#7fc4ff" stroke-width="0.9" opacity="0.42"/>
<line x1="409.6" y1="731.7" x2="329.6" y2="715.7" stroke="#7fc4ff" stroke-width="0.9" opacity="0.39"/>
<line x1="409.6" y1="731.7" x2="464.0" y2="657.7" stroke="#7fc4ff" stroke-width="0.9" opacity="0.37"/>
<line x1="483.3" y1="642.1" x2="426.0" y2="692.0" stroke="#7fc4ff" stroke-width="0.9" opacity="0.40"/>
<line x1="329.6" y1="715.7" x2="426.0" y2="692.0" stroke="#7fc4ff" stroke-width="0.9" opacity="0.35"/>
<line x1="246.6" y1="408.9" x2="242.3" y2="368.1" stroke="#7fc4ff" stroke-width="0.9" opacity="0.47"/>
<line x1="246.6" y1="408.9" x2="301.2" y2="411.7" stroke="#7fc4ff" stroke-width="0.9" opacity="0.44"/>
<line x1="47.4" y1="430.6" x2="133.6" y2="419.1" stroke="#7fc4ff" stroke-width="0.9" opacity="0.38"/>
<line x1="47.4" y1="430.6" x2="133.6" y2="517.6" stroke="#7fc4ff" stroke-width="0.9" opacity="0.31"/>
<line x1="47.4" y1="430.6" x2="167.3" y2="468.9" stroke="#7fc4ff" stroke-width="0.9" opacity="0.30"/>
<line x1="242.3" y1="368.1" x2="232.2" y2="351.2" stroke="#7fc4ff" stroke-width="0.9" opacity="0.51"/>
<line x1="242.3" y1="368.1" x2="274.0" y2="323.4" stroke="#7fc4ff" stroke-width="0.9" opacity="0.44"/>
<line x1="232.2" y1="351.2" x2="274.0" y2="323.4" stroke="#7fc4ff" stroke-width="0.9" opacity="0.45"/>
<line x1="232.2" y1="351.2" x2="246.6" y2="408.9" stroke="#7fc4ff" stroke-width="0.9" opacity="0.43"/>
<line x1="600.9" y1="484.2" x2="643.7" y2="459.4" stroke="#7fc4ff" stroke-width="0.9" opacity="0.45"/>
<line x1="600.9" y1="484.2" x2="666.7" y2="480.3" stroke="#7fc4ff" stroke-width="0.9" opacity="0.42"/>
<line x1="735.0" y1="500.1" x2="666.7" y2="480.3" stroke="#7fc4ff" stroke-width="0.9" opacity="0.41"/>
<line x1="735.0" y1="500.1" x2="680.2" y2="450.0" stroke="#7fc4ff" stroke-width="0.9" opacity="0.40"/>
<line x1="735.0" y1="500.1" x2="686.2" y2="575.7" stroke="#7fc4ff" stroke-width="0.9" opacity="0.37"/>
<line x1="680.2" y1="450.0" x2="666.7" y2="480.3" stroke="#7fc4ff" stroke-width="0.9" opacity="0.48"/>
<line x1="680.2" y1="450.0" x2="643.7" y2="459.4" stroke="#7fc4ff" stroke-width="0.9" opacity="0.47"/>
<line x1="666.7" y1="480.3" x2="643.7" y2="459.4" stroke="#7fc4ff" stroke-width="0.9" opacity="0.49"/>
</g>
<g stroke-linecap="round" fill="none">
<line x1="400.0" y1="400.0" x2="382.1" y2="435.8" stroke="#e8a317" stroke-width="0.8" opacity="0.40"/>
<line x1="400.0" y1="400.0" x2="384.2" y2="377.9" stroke="#e8a317" stroke-width="0.8" opacity="0.43"/>
<line x1="400.0" y1="400.0" x2="334.9" y2="385.1" stroke="#e8a317" stroke-width="0.8" opacity="0.33"/>
<line x1="400.0" y1="400.0" x2="477.8" y2="429.7" stroke="#e8a317" stroke-width="0.8" opacity="0.29"/>
<line x1="400.0" y1="400.0" x2="472.6" y2="417.4" stroke="#e8a317" stroke-width="0.8" opacity="0.31"/>
<line x1="400.0" y1="400.0" x2="427.6" y2="413.0" stroke="#e8a317" stroke-width="0.8" opacity="0.42"/>
<line x1="400.0" y1="400.0" x2="283.4" y2="459.9" stroke="#e8a317" stroke-width="0.8" opacity="0.17"/>
<line x1="400.0" y1="400.0" x2="295.7" y2="334.9" stroke="#e8a317" stroke-width="0.8" opacity="0.19"/>
<line x1="400.0" y1="400.0" x2="273.6" y2="274.9" stroke="#e8a317" stroke-width="0.8" opacity="0.10"/>
<line x1="400.0" y1="400.0" x2="274.0" y2="323.4" stroke="#e8a317" stroke-width="0.8" opacity="0.13"/>
<line x1="400.0" y1="400.0" x2="301.2" y2="411.7" stroke="#e8a317" stroke-width="0.8" opacity="0.25"/>
<line x1="400.0" y1="400.0" x2="523.9" y2="378.1" stroke="#e8a317" stroke-width="0.8" opacity="0.19"/>
<line x1="400.0" y1="400.0" x2="495.2" y2="280.5" stroke="#e8a317" stroke-width="0.8" opacity="0.12"/>
<line x1="400.0" y1="400.0" x2="374.6" y2="223.8" stroke="#e8a317" stroke-width="0.8" opacity="0.10"/>
<line x1="400.0" y1="400.0" x2="253.1" y2="433.1" stroke="#e8a317" stroke-width="0.8" opacity="0.12"/>
<line x1="400.0" y1="400.0" x2="307.7" y2="508.7" stroke="#e8a317" stroke-width="0.8" opacity="0.14"/>
<line x1="400.0" y1="400.0" x2="381.8" y2="352.5" stroke="#e8a317" stroke-width="0.8" opacity="0.37"/>
<line x1="400.0" y1="400.0" x2="386.0" y2="308.2" stroke="#e8a317" stroke-width="0.8" opacity="0.27"/>
<line x1="400.0" y1="400.0" x2="274.5" y2="278.5" stroke="#e8a317" stroke-width="0.8" opacity="0.10"/>
<line x1="400.0" y1="400.0" x2="385.3" y2="257.6" stroke="#e8a317" stroke-width="0.8" opacity="0.14"/>
<line x1="400.0" y1="400.0" x2="295.1" y2="304.8" stroke="#e8a317" stroke-width="0.8" opacity="0.15"/>
<line x1="400.0" y1="400.0" x2="246.6" y2="408.9" stroke="#e8a317" stroke-width="0.8" opacity="0.12"/>
<line x1="400.0" y1="400.0" x2="242.3" y2="368.1" stroke="#e8a317" stroke-width="0.8" opacity="0.10"/>
<line x1="400.0" y1="400.0" x2="232.2" y2="351.2" stroke="#e8a317" stroke-width="0.8" opacity="0.10"/>
</g>
<g filter="url(#glow)">
<circle cx="382.1" cy="435.8" r="5.6" fill="#fff5d0" opacity="0.95"/>
<circle cx="384.2" cy="377.9" r="5.8" fill="#fff5d0" opacity="0.95"/>
<circle cx="334.9" cy="385.1" r="5.4" fill="#fff5d0" opacity="0.95"/>
<circle cx="477.8" cy="429.7" r="5.2" fill="#fff5d0" opacity="0.95"/>
<circle cx="472.6" cy="417.4" r="5.3" fill="#fff5d0" opacity="0.95"/>
<circle cx="427.6" cy="413.0" r="5.7" fill="#fff5d0" opacity="0.95"/>
<circle cx="283.4" cy="459.9" r="4.8" fill="#9ad3ff" opacity="0.95"/>
<circle cx="295.7" cy="334.9" r="4.9" fill="#fff5d0" opacity="0.95"/>
<circle cx="53.9" cy="88.2" r="2.5" fill="#5d9bd6" opacity="0.95"/>
<circle cx="142.1" cy="228.5" r="3.2" fill="#5d9bd6" opacity="0.95"/>
<circle cx="273.6" cy="274.9" r="4.4" fill="#9ad3ff" opacity="0.95"/>
<circle cx="297.3" cy="209.4" r="4.0" fill="#9ad3ff" opacity="0.95"/>
<circle cx="274.0" cy="323.4" r="4.7" fill="#9ad3ff" opacity="0.95"/>
<circle cx="167.3" cy="468.9" r="3.8" fill="#9ad3ff" opacity="0.95"/>
<circle cx="301.2" cy="411.7" r="5.1" fill="#fff5d0" opacity="0.95"/>
<circle cx="171.8" cy="198.7" r="3.2" fill="#5d9bd6" opacity="0.95"/>
<circle cx="541.6" cy="245.4" r="4.1" fill="#9ad3ff" opacity="0.95"/>
<circle cx="639.2" cy="280.8" r="3.6" fill="#5d9bd6" opacity="0.95"/>
<circle cx="531.3" cy="160.3" r="3.5" fill="#5d9bd6" opacity="0.95"/>
<circle cx="523.9" cy="378.1" r="4.9" fill="#fff5d0" opacity="0.95"/>
<circle cx="495.2" cy="280.5" r="4.6" fill="#9ad3ff" opacity="0.95"/>
<circle cx="618.7" cy="107.0" r="2.7" fill="#5d9bd6" opacity="0.95"/>
<circle cx="580.8" cy="386.6" r="4.4" fill="#9ad3ff" opacity="0.95"/>
<circle cx="374.6" cy="223.8" r="4.4" fill="#9ad3ff" opacity="0.95"/>
<circle cx="565.4" cy="174.3" r="3.5" fill="#5d9bd6" opacity="0.95"/>
<circle cx="294.7" cy="569.1" r="4.2" fill="#9ad3ff" opacity="0.95"/>
<circle cx="78.9" cy="667.1" r="2.5" fill="#5d9bd6" opacity="0.95"/>
<circle cx="313.6" cy="680.0" r="3.3" fill="#5d9bd6" opacity="0.95"/>
<circle cx="398.5" cy="615.8" r="4.0" fill="#9ad3ff" opacity="0.95"/>
<circle cx="253.1" cy="433.1" r="4.6" fill="#9ad3ff" opacity="0.95"/>
<circle cx="307.7" cy="508.7" r="4.7" fill="#9ad3ff" opacity="0.95"/>
<circle cx="190.2" cy="436.9" r="4.1" fill="#9ad3ff" opacity="0.95"/>
<circle cx="133.6" cy="517.6" r="3.4" fill="#5d9bd6" opacity="0.95"/>
<circle cx="381.8" cy="352.5" r="5.5" fill="#fff5d0" opacity="0.95"/>
<circle cx="430.2" cy="583.9" r="4.3" fill="#9ad3ff" opacity="0.95"/>
<circle cx="720.3" cy="617.8" r="2.5" fill="#5d9bd6" opacity="0.95"/>
<circle cx="386.0" cy="308.2" r="5.2" fill="#fff5d0" opacity="0.95"/>
<circle cx="611.7" cy="486.4" r="3.9" fill="#9ad3ff" opacity="0.95"/>
<circle cx="464.0" cy="657.7" r="3.6" fill="#5d9bd6" opacity="0.95"/>
<circle cx="686.2" cy="575.7" r="2.9" fill="#5d9bd6" opacity="0.95"/>
<circle cx="600.6" cy="603.4" r="3.4" fill="#5d9bd6" opacity="0.95"/>
<circle cx="735.4" cy="621.9" r="2.5" fill="#5d9bd6" opacity="0.95"/>
<circle cx="627.9" cy="614.8" r="3.2" fill="#5d9bd6" opacity="0.95"/>
<circle cx="274.5" cy="278.5" r="4.4" fill="#9ad3ff" opacity="0.95"/>
<circle cx="476.4" cy="218.4" r="4.2" fill="#9ad3ff" opacity="0.95"/>
<circle cx="242.1" cy="125.3" r="3.1" fill="#5d9bd6" opacity="0.95"/>
<circle cx="467.4" cy="31.1" r="2.6" fill="#5d9bd6" opacity="0.95"/>
<circle cx="385.3" cy="257.6" r="4.7" fill="#9ad3ff" opacity="0.95"/>
<circle cx="295.1" cy="304.8" r="4.7" fill="#9ad3ff" opacity="0.95"/>
<circle cx="444.2" cy="628.0" r="3.9" fill="#9ad3ff" opacity="0.95"/>
<circle cx="426.0" cy="692.0" r="3.3" fill="#5d9bd6" opacity="0.95"/>
<circle cx="409.6" cy="731.7" r="3.0" fill="#5d9bd6" opacity="0.95"/>
<circle cx="347.1" cy="606.8" r="4.1" fill="#9ad3ff" opacity="0.95"/>
<circle cx="483.3" cy="642.1" r="3.7" fill="#9ad3ff" opacity="0.95"/>
<circle cx="329.6" cy="715.7" r="3.1" fill="#5d9bd6" opacity="0.95"/>
<circle cx="246.6" cy="408.9" r="4.6" fill="#9ad3ff" opacity="0.95"/>
<circle cx="47.4" cy="430.6" r="2.8" fill="#5d9bd6" opacity="0.95"/>
<circle cx="133.6" cy="419.1" r="3.6" fill="#5d9bd6" opacity="0.95"/>
<circle cx="242.3" cy="368.1" r="4.5" fill="#9ad3ff" opacity="0.95"/>
<circle cx="232.2" cy="351.2" r="4.4" fill="#9ad3ff" opacity="0.95"/>
<circle cx="600.9" cy="484.2" r="4.0" fill="#9ad3ff" opacity="0.95"/>
<circle cx="735.0" cy="500.1" r="2.8" fill="#5d9bd6" opacity="0.95"/>
<circle cx="680.2" cy="450.0" r="3.4" fill="#5d9bd6" opacity="0.95"/>
<circle cx="666.7" cy="480.3" r="3.5" fill="#5d9bd6" opacity="0.95"/>
<circle cx="643.7" cy="459.4" r="3.7" fill="#9ad3ff" opacity="0.95"/>
</g>
<circle cx="400.0" cy="400.0" r="14" fill="#fff" opacity="0.95" filter="url(#glow)"/>
<circle cx="400.0" cy="400.0" r="36" fill="none" stroke="#fff" stroke-width="0.8" opacity="0.35"/>
<circle cx="400.0" cy="400.0" r="64" fill="none" stroke="#fff" stroke-width="0.6" opacity="0.2"/>
<circle cx="400.0" cy="400.0" r="100" fill="none" stroke="#fff" stroke-width="0.5" opacity="0.12"/>
<g fill="#fff" filter="url(#glow)">
<circle cx="0.2" cy="121.0" r="0.52" opacity="0.42"/>
<circle cx="20.4" cy="699.5" r="1.14" opacity="0.29"/>
<circle cx="201.8" cy="277.9" r="0.84" opacity="0.27"/>
<circle cx="679.1" cy="794.5" r="0.96" opacity="0.49"/>
<circle cx="68.7" cy="81.8" r="0.81" opacity="0.36"/>
<circle cx="663.1" cy="129.2" r="0.43" opacity="0.77"/>
<circle cx="422.6" cy="117.3" r="1.05" opacity="0.22"/>
<circle cx="422.5" cy="782.8" r="1.44" opacity="0.62"/>
<circle cx="208.9" cy="293.4" r="0.60" opacity="0.66"/>
<circle cx="426.1" cy="623.2" r="0.80" opacity="0.33"/>
<circle cx="649.2" cy="787.9" r="1.42" opacity="0.68"/>
<circle cx="654.7" cy="591.9" r="0.67" opacity="0.51"/>
<circle cx="284.5" cy="23.2" r="0.43" opacity="0.37"/>
<circle cx="207.3" cy="554.0" r="1.55" opacity="0.47"/>
<circle cx="749.6" cy="790.4" r="1.55" opacity="0.42"/>
<circle cx="176.4" cy="181.5" r="0.64" opacity="0.32"/>
<circle cx="499.3" cy="720.2" r="1.41" opacity="0.49"/>
<circle cx="522.4" cy="639.7" r="0.50" opacity="0.60"/>
<circle cx="727.8" cy="625.8" r="1.30" opacity="0.49"/>
<circle cx="142.8" cy="631.3" r="0.80" opacity="0.68"/>
<circle cx="777.3" cy="316.7" r="0.88" opacity="0.77"/>
<circle cx="579.8" cy="136.0" r="0.55" opacity="0.29"/>
<circle cx="723.9" cy="645.2" r="0.58" opacity="0.70"/>
<circle cx="784.2" cy="525.8" r="0.82" opacity="0.53"/>
<circle cx="104.8" cy="11.4" r="1.57" opacity="0.59"/>
<circle cx="421.3" cy="746.9" r="0.92" opacity="0.72"/>
<circle cx="660.9" cy="168.8" r="0.70" opacity="0.38"/>
<circle cx="192.4" cy="469.1" r="0.71" opacity="0.45"/>
<circle cx="104.9" cy="728.0" r="0.82" opacity="0.47"/>
<circle cx="466.7" cy="723.4" r="0.90" opacity="0.75"/>
<circle cx="401.3" cy="425.5" r="1.03" opacity="0.21"/>
<circle cx="352.1" cy="146.5" r="0.40" opacity="0.68"/>
<circle cx="137.9" cy="378.8" r="1.27" opacity="0.53"/>
<circle cx="260.8" cy="414.7" r="1.07" opacity="0.67"/>
<circle cx="84.9" cy="448.2" r="0.70" opacity="0.37"/>
<circle cx="617.8" cy="406.2" r="1.07" opacity="0.66"/>
<circle cx="730.0" cy="354.6" r="1.14" opacity="0.50"/>
<circle cx="409.7" cy="554.2" r="0.94" opacity="0.52"/>
<circle cx="382.4" cy="753.2" r="1.24" opacity="0.73"/>
<circle cx="753.7" cy="207.7" r="1.07" opacity="0.77"/>
<circle cx="672.0" cy="109.7" r="0.55" opacity="0.47"/>
<circle cx="58.0" cy="192.5" r="0.49" opacity="0.60"/>
<circle cx="627.1" cy="717.6" r="0.59" opacity="0.63"/>
<circle cx="528.2" cy="114.4" r="1.46" opacity="0.78"/>
<circle cx="175.7" cy="762.0" r="0.88" opacity="0.49"/>
<circle cx="791.9" cy="666.0" r="0.59" opacity="0.46"/>
<circle cx="412.5" cy="271.3" r="0.63" opacity="0.39"/>
<circle cx="577.7" cy="15.6" r="1.06" opacity="0.46"/>
<circle cx="14.5" cy="265.2" r="1.15" opacity="0.51"/>
<circle cx="51.4" cy="788.1" r="1.35" opacity="0.78"/>
<circle cx="83.8" cy="212.5" r="0.45" opacity="0.67"/>
<circle cx="216.4" cy="103.6" r="0.91" opacity="0.75"/>
<circle cx="655.2" cy="206.9" r="0.58" opacity="0.75"/>
<circle cx="456.5" cy="560.3" r="0.51" opacity="0.23"/>
<circle cx="550.6" cy="340.3" r="0.49" opacity="0.76"/>
<circle cx="507.6" cy="641.3" r="0.50" opacity="0.71"/>
<circle cx="53.3" cy="690.2" r="0.94" opacity="0.40"/>
<circle cx="442.5" cy="741.3" r="0.72" opacity="0.28"/>
<circle cx="421.5" cy="190.7" r="0.53" opacity="0.30"/>
<circle cx="40.3" cy="161.4" r="0.77" opacity="0.38"/>
</g>
<g stroke="#7fc4ff" stroke-width="0.6" fill="none" opacity="0.35">
<path d="M 0 120 L 90 120 L 110 100 L 200 100"/>
<path d="M 800 680 L 710 680 L 690 700 L 600 700"/>
<path d="M 0 660 L 70 660 L 90 680 L 160 680"/>
<path d="M 800 140 L 730 140 L 710 120 L 640 120"/>
</g>
</svg>